<svg xmlns="http://www.w3.org/2000/svg" viewBox="0 0 238.9 178.8"><defs><style>.cls-1{fill:#ffed00;}.cls-2{fill:#fab510;}.cls-3{font-size:14px;}.cls-3,.cls-4,.cls-5{fill:#1d1d1b;font-family:Roboto-Bold, Roboto;font-weight:700;}.cls-4{font-size:18px;}.cls-5{font-size:12px;}</style></defs><title>Plan de travail 1</title><g id="Calque_1" data-name="Calque 1"><path class="cls-1" d="M121,42.78A77,77,0,0,1,184.66,79.5l31-17.89A112.66,112.66,0,0,0,121,7Z"/><path class="cls-1" d="M217.65,174.36a112.88,112.88,0,0,0,0-109.26L186.68,83a77.12,77.12,0,0,1,0,73.5Z"/><path class="cls-1" d="M53.34,79.5A77,77,0,0,1,117,42.78V7a112.68,112.68,0,0,0-94.62,54.6Z"/><path class="cls-1" d="M51.32,156.48a77.12,77.12,0,0,1,0-73.5l-31-17.88a112.88,112.88,0,0,0,0,109.26Z"/><path class="cls-2" d="M154.61,119.73a35.48,35.48,0,0,1-9.06,23.72L172.11,170a73.08,73.08,0,0,0,0-100.55L145.55,96A35.48,35.48,0,0,1,154.61,119.73Z"/><path class="cls-2" d="M83.39,119.73A35.48,35.48,0,0,1,92.45,96L65.89,69.46a73.08,73.08,0,0,0,0,100.55l26.56-26.56A35.48,35.48,0,0,1,83.39,119.73Z"/><path class="cls-2" d="M95.28,93.18a35.58,35.58,0,0,1,47.44,0l26.55-26.56a73.08,73.08,0,0,0-100.55,0Z"/></g><g id="texte"><text class="cls-3" transform="translate(37.85 150.27) rotate(-109.47)"> </text><text class="cls-3" transform="translate(36.71 147.07) rotate(-107.21)"> </text><text class="cls-3" transform="translate(35.62 143.93) rotate(-103.02)">A</text><text class="cls-3" transform="translate(33.46 135.03) rotate(-96.02)">M</text><text class="cls-3" transform="translate(32.37 123.03) rotate(-90.93)">I</text><text class="cls-3" transform="translate(32.21 119.13) rotate(-86.63)">C</text><text class="cls-3" transform="matrix(0.16, -0.99, 0.99, 0.16, 32.72, 110.24)">A</text><text class="cls-3" transform="translate(34.24 101.15) rotate(-75.17)">L</text><text class="cls-4" transform="matrix(0.32, -0.95, 0.95, 0.32, 36.19, 93.99)"> </text><text class="cls-4" transform="translate(37.58 89.88) rotate(-68.37)"> </text><text class="cls-4" transform="translate(39.19 85.8) rotate(-65.45)"> </text><text class="cls-4" transform="translate(40.99 81.86) rotate(-62.57)"> </text><text class="cls-4" transform="translate(43.01 77.96) rotate(-59.67)"> </text><text class="cls-4" transform="translate(45.2 74.21) rotate(-56.8)"> </text><text class="cls-4" transform="matrix(0.59, -0.81, 0.81, 0.59, 47.59, 70.55)"> </text><text class="cls-3" transform="translate(50.04 67) rotate(-49.38)">O</text><text class="cls-3" transform="matrix(0.73, -0.69, 0.69, 0.73, 56.17, 59.87)">R</text><text class="cls-3" transform="matrix(0.79, -0.61, 0.61, 0.79, 62.48, 53.86)">G</text><text class="cls-3" transform="translate(69.83 48.2) rotate(-31.45)">A</text><text class="cls-3" transform="translate(77.63 43.39) rotate(-25.22)">N</text><text class="cls-3" transform="translate(86.45 39.36) rotate(-20.71)">I</text><text class="cls-3" transform="matrix(0.96, -0.29, 0.29, 0.96, 90.09, 37.89)">S</text><text class="cls-3" transform="translate(98.13 35.5) rotate(-11.25)">É</text><text class="cls-4" transform="translate(105.7 34.05) rotate(-7.27)"> </text><text class="cls-4" transform="translate(110.03 33.49) rotate(-4.4)"> </text><text class="cls-4" transform="matrix(1, -0.03, 0.03, 1, 114.38, 33.16)"> </text><text class="cls-4" transform="matrix(1, 0.02, -0.02, 1, 118.75, 33.04)"> </text><text class="cls-4" transform="translate(123.1 33.13) rotate(4.14)"> </text><text class="cls-4" transform="translate(127.46 33.44) rotate(7.01)"> </text><text class="cls-4" transform="translate(131.8 33.97) rotate(9.9)"> </text><text class="cls-3" transform="translate(136.06 34.62) rotate(14.32)">C</text><text class="cls-3" transform="matrix(0.94, 0.34, -0.34, 0.94, 144.7, 36.82)">R</text><text class="cls-3" transform="translate(152.87 39.84) rotate(25.62)">É</text><text class="cls-3" transform="translate(159.8 43.1) rotate(31.2)">A</text><text class="cls-3" transform="translate(166.98 47.42) rotate(36.47)">T</text><text class="cls-3" transform="matrix(0.76, 0.65, -0.65, 0.76, 173.75, 52.51)">I</text><text class="cls-3" transform="translate(176.77 55.02) rotate(44.3)">F</text><text class="cls-3" transform="translate(182.11 60.31) rotate(47.86)"> </text><text class="cls-3" transform="matrix(0.64, 0.77, -0.77, 0.64, 184.4, 62.84)"> </text><text class="cls-3" transform="translate(186.57 65.44) rotate(52.33)"> </text><text class="cls-3" transform="translate(188.65 68.11) rotate(54.56)"> </text><text class="cls-3" transform="translate(190.61 70.88) rotate(56.8)"> </text><text class="cls-3" transform="matrix(0.51, 0.86, -0.86, 0.51, 192.47, 73.72)"> </text><text class="cls-3" transform="matrix(0.48, 0.88, -0.88, 0.48, 194.23, 76.63)"> </text><text class="cls-3" transform="translate(195.86 79.61) rotate(63.54)"> </text><text class="cls-3" transform="matrix(0.41, 0.91, -0.91, 0.41, 197.37, 82.65)"> </text><text class="cls-3" transform="translate(198.76 85.74) rotate(68.05)"> </text><text class="cls-3" transform="translate(200.12 88.77) rotate(72.39)">H</text><text class="cls-3" transform="translate(203.05 97.96) rotate(78.73)">O</text><text class="cls-3" transform="translate(204.9 107.18) rotate(85.02)">N</text><text class="cls-3" transform="translate(205.75 116.77) rotate(91.28)">N</text><text class="cls-3" transform="translate(205.5 126.42) rotate(96.95)">Ê</text><text class="cls-3" transform="matrix(-0.21, 0.98, -0.98, -0.21, 204.58, 134.16)">T</text><text class="cls-3" transform="translate(202.77 142.39) rotate(107.72)">E</text><text class="cls-3" transform="matrix(-0.37, 0.93, -0.93, -0.37, 200.35, 149.73)"> </text><text class="cls-3" transform="matrix(-0.4, 0.92, -0.92, -0.4, 199.11, 152.9)"> </text><text class="cls-3" transform="matrix(-0.44, 0.9, -0.9, -0.44, 197.75, 156)"> </text><text class="cls-3" transform="matrix(-0.47, 0.88, -0.88, -0.47, 196.28, 159.04)"> </text><text class="cls-3" transform="matrix(-0.51, 0.86, -0.86, -0.51, 194.67, 162.05)"> </text><text class="cls-3" transform="matrix(-0.54, 0.84, -0.84, -0.54, 192.95, 164.98)"> </text><text/><text class="cls-3" transform="translate(79.33 152.63) rotate(-124.62)">C</text><text class="cls-3" transform="matrix(-0.42, -0.91, 0.91, -0.42, 74.31, 145.46)">O</text><text class="cls-3" transform="translate(70.4 137.05) rotate(-104.07)">H</text><text class="cls-3" transform="translate(68.14 127.81) rotate(-94.58)">É</text><text class="cls-3" transform="translate(67.48 120.32) rotate(-85.74)">R</text><text class="cls-3" transform="translate(68.12 111.78) rotate(-76.78)">E</text><text class="cls-3" transform="translate(69.73 104.45) rotate(-67.25)">N</text><text class="cls-3" transform="translate(73.33 95.86) rotate(-57.53)">T</text><text class="cls-3" transform="matrix(0.62, -0.78, 0.78, 0.62, 77.72, 89.16)"> </text><text class="cls-3" transform="translate(79.78 86.57) rotate(-47.82)"> </text><text class="cls-3" transform="translate(82.02 84.08) rotate(-44.1)"> </text><text class="cls-3" transform="translate(84.4 81.77) rotate(-40.43)"> </text><text class="cls-3" transform="matrix(0.8, -0.6, 0.6, 0.8, 86.95, 79.59)"> </text><text class="cls-3" transform="translate(89.46 77.56) rotate(-30.68)">E</text><text class="cls-3" transform="translate(95.94 73.69) rotate(-22.36)">F</text><text class="cls-3" transform="matrix(0.97, -0.24, 0.24, 0.97, 102.72, 70.88)">F</text><text class="cls-3" transform="translate(109.92 69.16) rotate(-7.83)">I</text><text class="cls-3" transform="translate(113.67 68.48) rotate(-0.93)">C</text><text class="cls-3" transform="translate(122.44 68.3) rotate(9)">A</text><text class="cls-3" transform="matrix(0.95, 0.32, -0.32, 0.95, 131.24, 69.65)">C</text><text class="cls-3" transform="translate(139.55 72.51) rotate(27.95)">E</text><text class="cls-3" transform="translate(146.22 76.17) rotate(34)"> </text><text class="cls-3" transform="matrix(0.79, 0.61, -0.61, 0.79, 149.01, 78.04)"> </text><text class="cls-3" transform="matrix(0.75, 0.66, -0.66, 0.75, 151.63, 80.07)"> </text><text class="cls-3" transform="translate(154.15 82.28) rotate(45.13)"> </text><text class="cls-3" transform="matrix(0.66, 0.75, -0.75, 0.66, 156.49, 84.62)"> </text><text class="cls-3" transform="matrix(0.61, 0.79, -0.79, 0.61, 158.7, 87.14)"> </text><text class="cls-5" transform="translate(160.76 89.62) rotate(58.5)">D</text><text class="cls-5" transform="matrix(0.43, 0.9, -0.9, 0.43, 164.62, 96.11)">I</text><text class="cls-5" transform="translate(166.12 99.01) rotate(70.38)">S</text><text class="cls-5" transform="translate(168.53 105.65) rotate(78.5)">P</text><text class="cls-5" transform="translate(170.05 112.89) rotate(87.03)">O</text><text class="cls-5" transform="matrix(-0.1, 0.99, -0.99, -0.1, 170.49, 120.81)">N</text><text class="cls-5" transform="matrix(-0.21, 0.98, -0.98, -0.21, 169.54, 128.95)">I</text><text class="cls-5" transform="translate(168.96 132.19) rotate(108.25)">B</text><text class="cls-5" transform="translate(166.65 139.13) rotate(115.81)">L</text><text class="cls-5" transform="translate(163.96 144.75) rotate(122.9)">E</text><text class="cls-5" transform="matrix(-0.62, 0.79, -0.79, -0.62, 160.35, 150.19)"> </text><text class="cls-5" transform="matrix(-0.66, 0.75, -0.75, -0.66, 158.6, 152.43)"> </text><text class="cls-5" transform="matrix(-0.7, 0.71, -0.71, -0.7, 156.71, 154.59)"> </text><text class="cls-5" transform="translate(154.7 156.64) rotate(137.6)"> </text><text class="cls-5" transform="matrix(-0.77, 0.63, -0.63, -0.77, 152.6, 158.57)"> </text></g></svg>